<?xml version="1.0" encoding="iso-8859-1"?>
<!-- Generator: Adobe Illustrator 19.0.0, SVG Export Plug-In . SVG Version: 6.00 Build 0)  -->
<svg version="1.1" id="Capa_1" xmlns="http://www.w3.org/2000/svg" xmlns:xlink="http://www.w3.org/1999/xlink" x="0px" y="0px"
	 viewBox="0 0 368 368" style="enable-background:new 0 0 368 368;" xml:space="preserve">
<g>
	<g>
		<path d="M302.04,146.768c-0.304-0.352-0.72-0.56-1.08-0.856c-0.44-0.36-0.832-0.776-1.344-1.032
			c-0.92-0.464-1.936-0.76-2.984-0.848c-0.008,0-0.008,0-0.016,0c-1.192-0.096-2.312,0.088-3.344,0.448
			c-0.504,0.16-2.312,0.736-5.272,1.584V40c0-4.416-3.576-8-8-8h-40V8c0.008-4.416-3.568-8-7.992-8h-48h-48c-4.424,0-8,3.584-8,8v24
			h-40c-4.424,0-8,3.584-8,8v106.064c-3.184-0.912-5.032-1.512-5.36-1.616c-1.008-0.352-2.112-0.512-3.264-0.424
			c-0.008,0-0.008,0-0.016,0c-1.048,0.08-2.064,0.376-2.984,0.848c-0.512,0.264-0.904,0.672-1.344,1.032
			c-0.36,0.288-0.768,0.504-1.08,0.856c-1.352,1.56-2.112,3.632-1.944,5.848l16,208c0.336,4.176,3.816,7.392,7.992,7.392h192
			c4.176,0,7.656-3.216,7.976-7.384l10.96-142.472c0-0.008,0-0.016,0-0.024l5.04-65.504
			C304.152,150.392,303.392,148.32,302.04,146.768z M240.008,48h32v102.136c-10.76,2.424-21.328,4.344-32,5.832V48z M192.008,16h32
			v24v117.744c-10.696,1.112-21.352,1.768-32,1.992V16z M144.008,40V16h32v143.744c-10.648-0.224-21.304-0.88-32-1.992V40z
			 M96.008,48h32v107.96c-10.672-1.48-21.24-3.408-32-5.832V48z M272.6,352H95.416l-9.6-124.832
			C103.008,232.04,138.08,240,184.008,240c46.024,0,81.064-7.24,98.104-11.624L272.6,352z M283.408,211.44
			c-12.84,3.616-49.664,12.56-99.4,12.56c-49.736,0-86.816-9.984-99.512-13.928l-3.632-47.176c1.6,0.424,3.296,0.872,5.2,1.344
			c0.016,0,0.024,0,0.04,0.008c0.008,0,0.016,0.008,0.024,0.008c16.512,3.976,32.512,6.832,48.904,8.72
			c0.016,0,0.032,0.008,0.048,0.008c0.024,0,0.048,0,0.08,0.008c0.256,0.032,0.504,0.04,0.76,0.072c0.024,0,0.048,0.016,0.08,0.016
			c0.008,0,0.016-0.008,0.032-0.008C152.08,175,168.216,176,184.008,176s31.928-1,47.968-2.928c0.008,0,0.016,0.008,0.032,0.008
			c0.024,0,0.048-0.016,0.08-0.016c0.256-0.032,0.504-0.04,0.76-0.072c0.024,0,0.048,0,0.08-0.008c0.016,0,0.032-0.008,0.048-0.008
			c16.4-1.888,32.392-4.736,48.904-8.72c0.008,0,0.016-0.008,0.024-0.008c0.016,0,0.024,0,0.04-0.008c1.904-0.48,3.6-0.92,5.2-1.344
			L283.408,211.44z"/>
	</g></g><g></g><g></g><g></g><g></g><g></g><g></g><g></g><g></g><g></g><g></g><g></g><g></g><g></g><g></g><g></g></svg>
