<?xml version="1.0" encoding="iso-8859-1"?>
<!-- Generator: Adobe Illustrator 19.0.0, SVG Export Plug-In . SVG Version: 6.00 Build 0)  -->
<svg version="1.1" id="Capa_1" xmlns="http://www.w3.org/2000/svg" xmlns:xlink="http://www.w3.org/1999/xlink" x="0px" y="0px"
	 viewBox="0 0 512.001 512.001" style="enable-background:new 0 0 512.001 512.001;" xml:space="preserve">
<g>
	<g>
		<path d="M306.041,38.531c-12.097-51.383-87.928-51.367-100.022,0c-28.304,7.631-52.632,26.768-66.788,53.636
			c-1.938,3.675-0.522,8.233,3.153,10.171c3.685,1.938,8.233,0.522,10.171-3.153c9.786-18.572,25.218-32.837,43.528-41.126
			c-25.602,43.481-18.387,83.252-18.387,93.638c0,22.877-15.211,23.709-15.211,51.879c0,27.928,15.211,29.206,15.211,51.868
			c0,22.74-15.211,23.797-15.211,51.879c0,29.807,18.499,30.88,14.82,58.194c-4.017,29.841,2.23,60.874,17.257,87.741
			c-31-14.725-52.489-46.337-52.489-82.881c0.5-243.434-1.125-230.734,1.456-245.005c0.733-4.096-1.978-8.012-6.074-8.745
			c-4.096-0.743-8.012,1.978-8.745,6.064c-2.991,16.53-1.123,5.66-1.697,247.686c0,49.268,33.545,90.855,79.008,103.094
			c11.918,50.522,85.892,51.616,99.56,1.767c0.798-0.704,1.11-1.27,1.833-2.181c11.293-3.221,22.05-8.309,31.872-15.189
			c3.414-2.38,4.237-7.078,1.857-10.482c-2.39-3.414-7.089-4.237-10.492-1.847c-2.823,1.975-5.737,3.774-8.723,5.404
			c14.112-26.328,19.893-56.442,15.992-85.426c-3.712-27.555,14.81-27.957,14.81-58.194c0-27.957-15.201-29.117-15.201-51.879
			c0-22.866,15.201-23.729,15.201-51.868c0-29.963-17.819-29.901-14.95-57.059c3.253-30.724-2.895-60.657-17.428-86.355
			c29.458,15.271,49.638,46.053,49.638,81.465v228.749c0,20.432-6.657,39.8-19.237,56.015c-3.852,4.975-0.274,12.149,5.944,12.149
			c2.249,0,4.468-0.994,5.954-2.912c14.649-18.876,22.4-41.447,22.4-65.252V141.626C385.049,92.357,351.504,50.769,306.041,38.531z
			 M204.684,440.206c-19.656-39.54-11.928-69.837-11.928-81.006c0-27.956-15.211-29.141-15.211-51.879
			c0-22.894,15.211-23.735,15.211-51.878c0-27.949-15.211-29.137-15.211-51.869c0-22.894,15.211-23.735,15.211-51.879
			c0-9.576-6.241-41.04,11.928-77.893V440.206z M322.467,151.695c0,27.904,15.201,29.258,15.201,51.879
			c0,22.866-15.201,23.729-15.201,51.869c0,27.904,15.201,29.258,15.201,51.878c0,22.848-15.201,23.746-15.201,51.879
			c0,12.273,8.333,45.359-15.091,86.97V226.747c0-4.157-3.374-7.53-7.53-7.53s-7.53,3.374-7.53,7.53c0,10.255,0,225.013,0,235.246
			c0,44.38-71.049,48.988-72.572-0.984c0-428.164-0.072-411.413,0.132-413.892c1.499-18.153,16.725-32.041,34.799-32.041
			c0.328,0.095,24.081-2.072,34.438,20.332c5.758,12.418,2.105,10.964,3.203,161.218c0,4.167,3.374,7.53,7.53,7.53
			s7.53-3.364,7.53-7.53V67.808C329.302,106.81,322.467,141.489,322.467,151.695z"/>
	</g>
</g>
<g>
	<g>
		<path d="M275.51,120.069c0-13.293-8.514-20.211-14.731-25.263c-6.024-4.895-9.168-7.721-9.168-13.574
			c-0.001-13.779,23.899-15.752,23.899-38.834c0-4.16-3.372-7.53-7.53-7.53c-4.159,0-7.53,3.371-7.53,7.53
			c0,13.779-23.9,15.751-23.9,38.834c0,13.293,8.514,20.211,14.731,25.263c6.024,4.895,9.168,7.721,9.168,13.574
			c0,13.779-23.9,15.751-23.9,38.836c0,13.293,8.514,20.211,14.732,25.263c6.024,4.894,9.168,7.72,9.168,13.573
			c0,13.778-23.9,15.75-23.9,38.831c0,13.293,8.514,20.211,14.731,25.263c6.024,4.895,9.168,7.72,9.168,13.574
			c0,13.779-23.9,15.751-23.9,38.836c0,13.293,8.514,20.212,14.731,25.263c6.024,4.896,9.168,7.722,9.168,13.576
			c0,13.782-23.9,15.75-23.9,38.837c0,13.294,8.514,20.213,14.731,25.265c6.024,4.896,9.169,7.723,9.169,13.577
			c0,13.736-23.9,15.795-23.9,38.842c0,4.16,3.372,7.53,7.53,7.53c4.159,0,7.53-3.371,7.53-7.53c0-13.736,23.9-15.796,23.9-38.842
			c0-13.294-8.514-20.213-14.731-25.265c-6.024-4.896-9.169-7.723-9.169-13.577c0-13.78,23.9-15.753,23.9-38.837
			c0-13.293-8.514-20.212-14.731-25.264c-6.024-4.895-9.168-7.721-9.168-13.575c0-13.779,23.9-15.751,23.9-38.836
			c0-13.293-8.514-20.211-14.731-25.262c-6.024-4.895-9.168-7.72-9.168-13.574c0-13.776,23.9-15.749,23.9-38.831
			c0-13.292-8.514-20.21-14.731-25.262c-6.024-4.895-9.168-7.72-9.168-13.574C251.61,145.126,275.51,143.154,275.51,120.069z"/>
	</g>
</g>
<g>
</g>
<g>
</g>
<g>
</g>
<g>
</g>
<g>
</g>
<g>
</g>
<g>
</g>
<g>
</g>
<g>
</g>
<g>
</g>
<g>
</g>
<g>
</g>
<g>
</g>
<g>
</g>
<g>
</g>
</svg>
