<?xml version="1.0" encoding="iso-8859-1"?>
<!-- Generator: Adobe Illustrator 19.0.0, SVG Export Plug-In . SVG Version: 6.00 Build 0)  -->
<svg version="1.1" id="Capa_1" xmlns="http://www.w3.org/2000/svg" xmlns:xlink="http://www.w3.org/1999/xlink" x="0px" y="0px"
	 viewBox="0 0 511.999 511.999" style="enable-background:new 0 0 511.999 511.999;" xml:space="preserve">
<g>
	<g>
		<path d="M292.58,85.124c-7.385,0-11.411,3.517-14.075,5.845c-2.028,1.771-2.515,2.145-4.217,2.145
			c-1.702,0-2.191-0.375-4.218-2.145c-2.664-2.328-6.69-5.845-14.074-5.845c-7.384,0-11.409,3.518-14.073,5.846
			c-2.028,1.77-2.515,2.144-4.216,2.144s-2.189-0.375-4.216-2.144c-2.664-2.328-6.689-5.846-14.073-5.846
			c-4.138,0-7.491,3.354-7.491,7.491c0,4.137,3.353,7.491,7.491,7.491c1.701,0,2.189,0.375,4.216,2.144
			c2.664,2.328,6.689,5.846,14.073,5.846s11.409-3.518,14.073-5.846c2.028-1.77,2.515-2.144,4.216-2.144
			c1.702,0,2.19,0.375,4.217,2.145c2.664,2.328,6.69,5.845,14.075,5.845c7.384,0,11.41-3.518,14.074-5.845
			c2.028-1.771,2.516-2.145,4.218-2.145c4.138,0,7.491-3.354,7.491-7.491C300.071,88.478,296.718,85.124,292.58,85.124z"/>
	</g>
</g>
<g>
	<g>
		<path d="M292.58,120.622c-7.385,0-11.411,3.517-14.075,5.845c-2.028,1.771-2.515,2.145-4.217,2.145
			c-1.702,0-2.191-0.375-4.218-2.145c-2.664-2.328-6.69-5.845-14.074-5.845c-7.384,0-11.409,3.518-14.073,5.846
			c-2.028,1.77-2.515,2.144-4.216,2.144s-2.189-0.375-4.216-2.144c-2.664-2.328-6.689-5.846-14.073-5.846
			c-4.138,0-7.491,3.354-7.491,7.491c0,4.137,3.353,7.491,7.491,7.491c1.701,0,2.189,0.375,4.216,2.144
			c2.664,2.328,6.689,5.846,14.073,5.846s11.409-3.518,14.073-5.846c2.028-1.77,2.515-2.144,4.216-2.144
			c1.702,0,2.19,0.375,4.217,2.145c2.664,2.328,6.69,5.845,14.075,5.845c7.384,0,11.41-3.517,14.074-5.845
			c2.028-1.771,2.516-2.145,4.218-2.145c4.138,0,7.491-3.354,7.491-7.491C300.071,123.976,296.718,120.622,292.58,120.622z"/>
	</g>
</g>
<g>
	<g>
		<path d="M228.364,193.811c-7.384,0-11.41,3.518-14.074,5.845c-2.028,1.771-2.516,2.145-4.218,2.145s-2.19-0.375-4.217-2.145
			c-2.664-2.328-6.69-5.845-14.074-5.845c-7.385,0-11.41,3.518-14.074,5.846c-2.028,1.77-2.515,2.144-4.216,2.144
			c-1.7,0-2.189-0.375-4.214-2.144c-2.664-2.328-6.69-5.846-14.074-5.846c-4.138,0-7.491,3.354-7.491,7.491
			c0,4.137,3.353,7.491,7.491,7.491c1.701,0,2.189,0.375,4.215,2.144c2.664,2.328,6.689,5.846,14.073,5.846
			c7.384,0,11.409-3.517,14.073-5.845c2.028-1.771,2.515-2.145,4.217-2.145c1.702,0,2.19,0.375,4.217,2.145
			c2.664,2.328,6.69,5.845,14.074,5.845c7.385,0,11.411-3.517,14.075-5.845c2.028-1.771,2.515-2.145,4.217-2.145
			c4.138,0,7.491-3.354,7.491-7.491C235.855,197.165,232.502,193.811,228.364,193.811z"/>
	</g>
</g>
<g>
	<g>
		<path d="M228.364,229.31c-7.384,0-11.41,3.518-14.074,5.845c-2.028,1.771-2.516,2.145-4.218,2.145s-2.19-0.375-4.217-2.145
			c-2.664-2.328-6.69-5.845-14.074-5.845c-7.385,0-11.41,3.518-14.074,5.846c-2.028,1.77-2.515,2.144-4.216,2.144
			c-1.7,0-2.189-0.375-4.214-2.144c-2.664-2.328-6.69-5.846-14.074-5.846c-4.138,0-7.491,3.354-7.491,7.491
			c0,4.137,3.353,7.491,7.491,7.491c1.701,0,2.189,0.375,4.215,2.144c2.664,2.328,6.689,5.846,14.073,5.846
			c7.384,0,11.409-3.517,14.073-5.845c2.028-1.771,2.515-2.145,4.217-2.145c1.702,0,2.19,0.375,4.217,2.145
			c2.664,2.328,6.69,5.845,14.074,5.845c7.385,0,11.411-3.518,14.075-5.845c2.028-1.771,2.515-2.145,4.217-2.145
			c4.138,0,7.491-3.354,7.491-7.491C235.855,232.664,232.502,229.31,228.364,229.31z"/>
	</g>
</g>
<g>
	<g>
		<path d="M356.795,193.811c-7.384,0-11.41,3.518-14.074,5.845c-2.028,1.771-2.516,2.145-4.218,2.145
			c-1.702,0-2.19-0.375-4.217-2.145c-2.664-2.328-6.69-5.845-14.075-5.845c-7.384,0-11.409,3.518-14.073,5.846
			c-2.028,1.77-2.515,2.144-4.216,2.144c-1.701,0-2.189-0.375-4.215-2.144c-2.664-2.328-6.689-5.846-14.073-5.846
			c-4.138,0-7.491,3.354-7.491,7.491c0,4.137,3.353,7.491,7.491,7.491c1.7,0,2.189,0.375,4.214,2.144
			c2.664,2.328,6.69,5.846,14.074,5.846s11.409-3.518,14.073-5.846c2.028-1.77,2.515-2.144,4.216-2.144
			c1.702,0,2.191,0.375,4.218,2.145c2.664,2.328,6.69,5.845,14.074,5.845c7.385,0,11.411-3.517,14.075-5.845
			c2.028-1.771,2.515-2.145,4.217-2.145c4.138,0,7.491-3.354,7.491-7.491C364.286,197.165,360.933,193.811,356.795,193.811z"/>
	</g>
</g>
<g>
	<g>
		<path d="M356.795,229.31c-7.384,0-11.41,3.518-14.074,5.845c-2.028,1.771-2.516,2.145-4.218,2.145
			c-1.702,0-2.19-0.375-4.217-2.145c-2.664-2.328-6.69-5.845-14.075-5.845c-7.384,0-11.409,3.518-14.073,5.846
			c-2.028,1.77-2.515,2.144-4.216,2.144c-1.701,0-2.189-0.375-4.215-2.144c-2.664-2.328-6.689-5.846-14.073-5.846
			c-4.138,0-7.491,3.354-7.491,7.491c0,4.137,3.353,7.491,7.491,7.491c1.7,0,2.189,0.375,4.214,2.144
			c2.664,2.328,6.69,5.846,14.074,5.846s11.409-3.518,14.073-5.846c2.028-1.77,2.515-2.144,4.216-2.144
			c1.702,0,2.191,0.375,4.218,2.145c2.664,2.328,6.69,5.845,14.074,5.845c7.385,0,11.411-3.518,14.075-5.845
			c2.028-1.771,2.515-2.145,4.217-2.145c4.138,0,7.491-3.354,7.491-7.491C364.286,232.664,360.933,229.31,356.795,229.31z"/>
	</g>
</g>
<g>
	<g>
		<path d="M162.275,305.673c-7.385,0-11.411,3.517-14.075,5.845c-2.028,1.771-2.515,2.145-4.217,2.145s-2.191-0.375-4.218-2.145
			c-2.664-2.328-6.69-5.845-14.074-5.845s-11.409,3.518-14.073,5.846c-2.028,1.77-2.515,2.144-4.216,2.144
			c-1.701,0-2.189-0.375-4.216-2.144c-2.664-2.328-6.689-5.846-14.073-5.846c-4.138,0-7.491,3.354-7.491,7.491
			c0,4.137,3.353,7.491,7.491,7.491c1.701,0,2.189,0.375,4.216,2.144c2.664,2.328,6.689,5.846,14.073,5.846
			s11.409-3.518,14.073-5.846c2.028-1.77,2.515-2.144,4.216-2.144c1.702,0,2.19,0.375,4.217,2.145
			c2.664,2.328,6.69,5.845,14.075,5.845c7.384,0,11.41-3.517,14.074-5.845c2.028-1.771,2.516-2.145,4.218-2.145
			c4.138,0,7.491-3.354,7.491-7.491C169.766,309.027,166.413,305.673,162.275,305.673z"/>
	</g>
</g>
<g>
	<g>
		<path d="M162.275,341.172c-7.385,0-11.411,3.517-14.075,5.845c-2.028,1.771-2.515,2.145-4.217,2.145s-2.191-0.375-4.218-2.145
			c-2.664-2.328-6.69-5.845-14.074-5.845s-11.409,3.518-14.073,5.846c-2.028,1.77-2.515,2.144-4.216,2.144
			c-1.701,0-2.189-0.375-4.216-2.144c-2.664-2.328-6.689-5.846-14.073-5.846c-4.138,0-7.491,3.354-7.491,7.491
			c0,4.137,3.353,7.491,7.491,7.491c1.701,0,2.189,0.375,4.216,2.144c2.664,2.328,6.689,5.846,14.073,5.846
			s11.409-3.518,14.073-5.846c2.028-1.77,2.515-2.144,4.216-2.144c1.702,0,2.19,0.375,4.217,2.145
			c2.664,2.328,6.69,5.845,14.075,5.845c7.384,0,11.41-3.517,14.074-5.845c2.028-1.771,2.516-2.145,4.218-2.145
			c4.138,0,7.491-3.354,7.491-7.491C169.766,344.526,166.413,341.172,162.275,341.172z"/>
	</g>
</g>
<g>
	<g>
		<path d="M422.885,305.673c-7.385,0-11.411,3.517-14.075,5.845c-2.028,1.771-2.515,2.145-4.217,2.145
			c-1.702,0-2.191-0.375-4.218-2.145c-2.664-2.328-6.69-5.845-14.074-5.845c-7.384,0-11.409,3.518-14.073,5.846
			c-2.028,1.77-2.515,2.144-4.216,2.144c-1.701,0-2.189-0.375-4.216-2.144c-2.664-2.328-6.689-5.846-14.073-5.846
			c-4.138,0-7.491,3.354-7.491,7.491c0,4.137,3.353,7.491,7.491,7.491c1.701,0,2.189,0.375,4.216,2.144
			c2.664,2.328,6.689,5.846,14.073,5.846s11.409-3.518,14.073-5.846c2.028-1.77,2.515-2.144,4.216-2.144
			c1.702,0,2.19,0.375,4.217,2.145c2.664,2.328,6.69,5.845,14.075,5.845c7.384,0,11.41-3.517,14.074-5.845
			c2.028-1.771,2.516-2.145,4.218-2.145c4.138,0,7.491-3.354,7.491-7.491C430.376,309.027,427.023,305.673,422.885,305.673z"/>
	</g>
</g>
<g>
	<g>
		<path d="M422.885,341.172c-7.385,0-11.411,3.517-14.075,5.845c-2.028,1.771-2.515,2.145-4.217,2.145
			c-1.702,0-2.191-0.375-4.218-2.145c-2.664-2.328-6.69-5.845-14.074-5.845c-7.384,0-11.409,3.518-14.073,5.846
			c-2.028,1.77-2.515,2.144-4.216,2.144c-1.701,0-2.189-0.375-4.216-2.144c-2.664-2.328-6.689-5.846-14.073-5.846
			c-4.138,0-7.491,3.354-7.491,7.491c0,4.137,3.353,7.491,7.491,7.491c1.701,0,2.189,0.375,4.216,2.144
			c2.664,2.328,6.689,5.846,14.073,5.846s11.409-3.518,14.073-5.846c2.028-1.77,2.515-2.144,4.216-2.144
			c1.702,0,2.19,0.375,4.217,2.145c2.664,2.328,6.69,5.845,14.075,5.845c7.384,0,11.41-3.517,14.074-5.845
			c2.028-1.771,2.516-2.145,4.218-2.145c4.138,0,7.491-3.354,7.491-7.491C430.376,344.526,427.023,341.172,422.885,341.172z"/>
	</g>
</g>
<g>
	<g>
		<path d="M292.58,305.673c-7.385,0-11.411,3.517-14.075,5.845c-2.028,1.771-2.515,2.145-4.217,2.145
			c-1.702,0-2.191-0.375-4.218-2.145c-2.664-2.328-6.69-5.845-14.074-5.845c-7.384,0-11.409,3.518-14.073,5.846
			c-2.028,1.77-2.515,2.144-4.216,2.144s-2.189-0.375-4.216-2.144c-2.664-2.328-6.689-5.846-14.073-5.846
			c-4.138,0-7.491,3.354-7.491,7.491c0,4.137,3.353,7.491,7.491,7.491c1.701,0,2.189,0.375,4.216,2.144
			c2.664,2.328,6.689,5.846,14.073,5.846s11.409-3.518,14.073-5.846c2.028-1.77,2.515-2.144,4.216-2.144
			c1.702,0,2.19,0.375,4.217,2.145c2.664,2.328,6.69,5.845,14.075,5.845c7.384,0,11.41-3.517,14.074-5.845
			c2.028-1.771,2.516-2.145,4.218-2.145c4.138,0,7.491-3.354,7.491-7.491C300.071,309.027,296.718,305.673,292.58,305.673z"/>
	</g>
</g>
<g>
	<g>
		<path d="M292.58,341.172c-7.385,0-11.411,3.517-14.075,5.845c-2.028,1.771-2.515,2.145-4.217,2.145
			c-1.702,0-2.191-0.375-4.218-2.145c-2.664-2.328-6.69-5.845-14.074-5.845c-7.384,0-11.409,3.518-14.073,5.846
			c-2.028,1.77-2.515,2.144-4.216,2.144s-2.189-0.375-4.216-2.144c-2.664-2.328-6.689-5.846-14.073-5.846
			c-4.138,0-7.491,3.354-7.491,7.491c0,4.137,3.353,7.491,7.491,7.491c1.701,0,2.189,0.375,4.216,2.144
			c2.664,2.328,6.689,5.846,14.073,5.846s11.409-3.518,14.073-5.846c2.028-1.77,2.515-2.144,4.216-2.144
			c1.702,0,2.19,0.375,4.217,2.145c2.664,2.328,6.69,5.845,14.075,5.845c7.384,0,11.41-3.517,14.074-5.845
			c2.028-1.771,2.516-2.145,4.218-2.145c4.138,0,7.491-3.354,7.491-7.491C300.071,344.526,296.718,341.172,292.58,341.172z"/>
	</g>
</g>
<g>
	<g>
		<path d="M510.019,376.667c-2.315-3.622-6.263-5.785-10.562-5.785h-38.932c0.821-3.076,1.078-6.164,1.312-9.014
			c0.197-2.394,0.384-4.655,0.874-6.488c0.453-1.697,1.394-3.672,2.39-5.762c2.008-4.213,4.282-8.988,4.282-14.708
			s-2.274-10.494-4.282-14.708c-0.996-2.091-1.936-4.064-2.39-5.762c-0.49-1.833-0.677-4.094-0.874-6.487
			c-0.378-4.595-0.807-9.804-3.578-14.594c-2.806-4.848-7.128-7.828-10.942-10.455c-1.951-1.344-3.794-2.615-5.092-3.912
			c-1.298-1.298-2.569-3.142-3.914-5.093c-2.628-3.813-5.605-8.136-10.454-10.942c-4.789-2.77-9.998-3.199-14.593-3.578
			c-2.393-0.197-4.654-0.384-6.488-0.874c-1.697-0.453-3.673-1.394-5.763-2.39c-1.761-0.839-3.628-1.716-5.612-2.462
			c0.146-1.245,0.25-2.466,0.348-3.647c0.197-2.393,0.384-4.654,0.874-6.487c0.453-1.698,1.394-3.673,2.39-5.763
			c2.007-4.213,4.281-8.988,4.281-14.707c0-5.72-2.274-10.494-4.281-14.708c-0.996-2.091-1.936-4.064-2.391-5.763
			c-0.489-1.833-0.676-4.094-0.873-6.487c-0.379-4.595-0.808-9.803-3.578-14.593c-2.806-4.848-7.128-7.827-10.942-10.455
			c-1.952-1.344-3.795-2.615-5.093-3.912c-1.298-1.298-2.568-3.141-3.913-5.093c-2.628-3.814-5.606-8.136-10.456-10.942
			c-4.789-2.771-9.998-3.2-14.594-3.579c-2.393-0.197-4.654-0.383-6.487-0.874c-1.697-0.453-3.673-1.394-5.763-2.39
			c-1.125-0.535-2.293-1.088-3.506-1.614c0.039-0.443,0.079-0.887,0.115-1.319c0.197-2.393,0.384-4.654,0.874-6.488
			c0.453-1.698,1.394-3.672,2.39-5.763c2.008-4.213,4.282-8.988,4.282-14.708c0-5.719-2.274-10.494-4.282-14.707
			c-0.996-2.091-1.936-4.065-2.391-5.763c-0.489-1.832-0.676-4.093-0.873-6.487c-0.378-4.596-0.807-9.804-3.578-14.594
			c-2.806-4.848-7.128-7.827-10.942-10.455c-1.951-1.344-3.794-2.615-5.092-3.912c-1.298-1.298-2.568-3.141-3.913-5.093
			c-2.629-3.814-5.607-8.137-10.456-10.942c-4.789-2.772-9.998-3.201-14.594-3.579c-2.393-0.197-4.654-0.383-6.487-0.874
			c-1.697-0.453-3.673-1.394-5.763-2.39c-4.213-2.007-8.988-4.282-14.708-4.282c-5.72,0-10.494,2.274-14.707,4.282
			c-2.091,0.996-4.065,1.937-5.763,2.39c-1.833,0.489-4.094,0.676-6.487,0.873c-3.336,0.275-7.116,0.586-10.77,1.846
			c-3.911,1.349-5.988,5.613-4.639,9.525c1.349,3.91,5.612,5.99,9.524,4.639c1.874-0.646,4.42-0.856,7.115-1.078
			c2.81-0.232,5.995-0.494,9.127-1.331c3.028-0.809,5.727-2.095,8.338-3.338c3.049-1.453,5.931-2.826,8.263-2.826
			c2.334,0,5.215,1.372,8.265,2.826c2.609,1.244,5.308,2.529,8.337,3.338c3.132,0.837,6.316,1.1,9.126,1.331
			c3.315,0.273,6.446,0.531,8.32,1.615c1.93,1.117,3.724,3.72,5.622,6.475c1.667,2.419,3.392,4.92,5.655,7.184
			c2.265,2.265,4.766,3.988,7.185,5.655c2.756,1.899,5.358,3.693,6.474,5.622c1.084,1.873,1.341,5.004,1.614,8.319
			c0.231,2.81,0.493,5.995,1.33,9.126c0.81,3.028,2.096,5.727,3.339,8.338c1.453,3.05,2.826,5.931,2.826,8.263
			c0,2.333-1.372,5.215-2.826,8.264c-1.244,2.61-2.529,5.309-3.338,8.337c-0.838,3.132-1.101,6.317-1.331,9.127
			c-0.006,0.068-0.012,0.132-0.017,0.2c-4.152,0.684-7.789,2.398-11.075,3.963c-2.091,0.996-4.065,1.937-5.764,2.39
			c-1.832,0.49-4.093,0.676-6.486,0.874c-4.596,0.378-9.804,0.807-14.593,3.579c-4.848,2.806-7.828,7.128-10.455,10.942
			c-1.345,1.952-2.615,3.794-3.913,5.093c-1.297,1.297-3.141,2.568-5.093,3.912c-1.044,0.719-2.125,1.471-3.204,2.274
			c-1.078-0.804-2.159-1.553-3.203-2.273c-1.952-1.344-3.795-2.615-5.093-3.912c-1.298-1.298-2.568-3.141-3.913-5.093
			c-2.628-3.814-5.606-8.136-10.456-10.942c-4.789-2.771-9.998-3.2-14.594-3.579c-2.393-0.197-4.654-0.384-6.487-0.874
			c-1.697-0.453-3.673-1.394-5.763-2.39c-3.287-1.566-6.923-3.279-11.076-3.963c-0.006-0.067-0.011-0.133-0.017-0.201
			c-0.231-2.81-0.493-5.995-1.33-9.126c-0.81-3.028-2.096-5.727-3.339-8.338c-1.453-3.05-2.826-5.931-2.826-8.264
			s1.372-5.214,2.826-8.264c1.243-2.61,2.529-5.309,3.339-8.338c0.837-3.131,1.099-6.316,1.33-9.126
			c0.179-2.175,0.349-4.23,0.742-5.932c0.936-4.03-1.574-8.054-5.604-8.989c-4.027-0.937-8.054,1.574-8.989,5.605
			c-0.642,2.768-0.865,5.471-1.081,8.087c-0.197,2.393-0.383,4.654-0.873,6.487c-0.453,1.698-1.394,3.672-2.39,5.763
			c-2.008,4.213-4.282,8.988-4.282,14.707c0,5.72,2.274,10.494,4.282,14.708c0.996,2.09,1.936,4.064,2.391,5.763
			c0.489,1.832,0.676,4.093,0.873,6.487c0.036,0.435,0.073,0.877,0.112,1.322c-1.212,0.525-2.379,1.077-3.503,1.612
			c-2.091,0.996-4.065,1.937-5.764,2.39c-1.832,0.49-4.093,0.676-6.486,0.874c-4.596,0.378-9.804,0.807-14.593,3.579
			c-4.848,2.806-7.828,7.128-10.456,10.942c-1.345,1.952-2.615,3.794-3.913,5.093c-1.297,1.297-3.141,2.568-5.093,3.912
			c-3.813,2.628-8.136,5.607-10.941,10.454c-2.772,4.789-3.201,9.999-3.58,14.595c-0.197,2.393-0.384,4.654-0.874,6.487
			c-0.453,1.698-1.394,3.672-2.39,5.763c-2.007,4.213-4.281,8.988-4.281,14.708c0,5.719,2.274,10.494,4.281,14.707
			c0.996,2.09,1.936,4.065,2.391,5.763c0.489,1.833,0.676,4.094,0.873,6.487c0.097,1.181,0.202,2.403,0.347,3.648
			c-1.985,0.747-3.851,1.623-5.611,2.462c-2.091,0.996-4.064,1.936-5.762,2.39c-1.833,0.489-4.094,0.676-6.487,0.873
			c-4.595,0.379-9.803,0.807-14.594,3.579c-4.848,2.806-7.828,7.128-10.456,10.942c-1.345,1.952-2.615,3.794-3.913,5.093
			c-1.297,1.297-3.141,2.568-5.093,3.912c-3.813,2.628-8.136,5.606-10.942,10.455c-2.77,4.789-3.199,9.997-3.578,14.593
			c-0.197,2.394-0.384,4.655-0.874,6.488c-0.453,1.698-1.394,3.672-2.39,5.762c-2.008,4.213-4.282,8.988-4.282,14.708
			s2.274,10.495,4.282,14.708c0.996,2.09,1.936,4.064,2.39,5.762c0.49,1.833,0.677,4.094,0.874,6.487
			c0.234,2.852,0.49,5.939,1.311,9.016H12.543c-4.299,0-8.247,2.162-10.562,5.785c-2.315,3.623-2.62,8.115-0.814,12.018
			l16.606,35.883c4.915,10.617,15.649,17.478,27.348,17.478h24.733v19.543c0,10.549,8.583,19.132,19.131,19.132h182.497
			c4.138,0,7.491-3.354,7.491-7.491c0-4.137-3.353-7.491-7.491-7.491H88.985c-2.288,0-4.149-1.862-4.149-4.15v-19.543h342.328
			v19.543c0,2.288-1.861,4.15-4.149,4.15H318.567c-4.138,0-7.491,3.354-7.491,7.491c0,4.137,3.353,7.491,7.491,7.491h104.447
			c10.549,0,19.131-8.583,19.131-19.132v-19.543h24.733c11.7,0,22.435-6.861,27.348-17.479l16.606-35.883
			C512.638,384.781,512.334,380.289,510.019,376.667z M394.57,269.639c2.609,1.244,5.308,2.529,8.337,3.338
			c3.132,0.837,6.316,1.1,9.127,1.331c3.315,0.273,6.446,0.531,8.319,1.614c1.93,1.117,3.724,3.72,5.622,6.475
			c1.667,2.419,3.391,4.921,5.655,7.185c2.264,2.264,4.765,3.988,7.184,5.655c2.756,1.899,5.359,3.693,6.475,5.623
			c1.084,1.873,1.341,5.004,1.614,8.319c0.231,2.81,0.493,5.994,1.33,9.126c0.81,3.028,2.096,5.727,3.339,8.337
			c1.453,3.05,2.826,5.931,2.826,8.264c0,2.333-1.372,5.215-2.826,8.264c-1.243,2.61-2.529,5.309-3.339,8.337
			c-0.837,3.132-1.1,6.316-1.33,9.127c-0.273,3.315-0.53,6.447-1.615,8.32c-0.379,0.654-0.938,1.292-1.606,1.925H330.219
			c0.821-3.076,1.078-6.164,1.312-9.014c0.197-2.394,0.384-4.655,0.874-6.488c0.453-1.697,1.394-3.672,2.39-5.762
			c2.008-4.213,4.282-8.988,4.282-14.708s-2.274-10.494-4.282-14.708c-0.996-2.09-1.936-4.064-2.39-5.762
			c-0.49-1.833-0.677-4.094-0.874-6.487c-0.257-3.13-0.557-6.543-1.586-9.916c1.134-0.926,2.472-1.848,3.848-2.797
			c2.419-1.667,4.92-3.391,7.185-5.656c2.265-2.265,3.988-4.766,5.655-7.185c1.899-2.756,3.693-5.359,5.621-6.474
			c1.874-1.084,5.005-1.342,8.321-1.615c2.81-0.231,5.994-0.493,9.126-1.33c3.028-0.81,5.726-2.095,8.337-3.338
			c3.05-1.453,5.931-2.826,8.264-2.826C388.637,266.812,391.518,268.187,394.57,269.639z M254.946,214.782
			c1.242-2.61,2.528-5.309,3.338-8.337c0.837-3.131,1.1-6.315,1.33-9.125c0.273-3.315,0.531-6.447,1.616-8.321
			c1.116-1.93,3.72-3.723,6.474-5.621c2.419-1.667,4.921-3.391,7.185-5.656c2.264-2.265,3.988-4.766,5.655-7.185
			c1.898-2.756,3.692-5.359,5.622-6.475c1.873-1.084,5.004-1.341,8.319-1.614c2.81-0.232,5.995-0.493,9.126-1.331
			c3.028-0.809,5.727-2.096,8.338-3.338c3.05-1.453,5.931-2.826,8.263-2.826c2.334,0,5.215,1.372,8.265,2.826
			c2.609,1.244,5.308,2.529,8.337,3.338c3.132,0.837,6.316,1.1,9.126,1.331c3.315,0.273,6.447,0.531,8.321,1.615
			c1.93,1.116,3.723,3.72,5.621,6.474c1.667,2.419,3.391,4.921,5.655,7.185c2.266,2.265,4.766,3.989,7.185,5.656
			c2.757,1.899,5.359,3.693,6.474,5.621c1.085,1.873,1.342,5.005,1.615,8.32c0.231,2.81,0.493,5.995,1.33,9.127
			c0.81,3.028,2.095,5.727,3.339,8.337c1.452,3.05,2.825,5.931,2.825,8.265c0,2.334-1.372,5.215-2.825,8.265
			c-1.244,2.61-2.529,5.309-3.339,8.337c-0.837,3.131-1.1,6.315-1.33,9.125c-0.11,1.335-0.221,2.636-0.381,3.841
			c-3.239,0.839-6.155,2.22-8.838,3.499c-2.091,0.996-4.064,1.936-5.762,2.39c-1.833,0.489-4.094,0.676-6.487,0.873
			c-4.596,0.379-9.803,0.807-14.594,3.579c-4.848,2.806-7.826,7.127-10.453,10.941c-1.345,1.952-2.616,3.794-3.914,5.093
			c-1.297,1.297-3.141,2.568-5.093,3.912c-1.347,0.928-2.756,1.905-4.138,2.99c-1.385-1.084-2.796-2.062-4.143-2.99
			c-1.951-1.344-3.794-2.615-5.092-3.912c-1.298-1.298-2.568-3.141-3.913-5.093c-2.629-3.813-5.607-8.136-10.456-10.942
			c-4.788-2.771-9.997-3.2-14.592-3.579c-2.393-0.197-4.654-0.384-6.488-0.874c-1.697-0.453-3.673-1.394-5.763-2.39
			c-3.206-1.527-6.742-3.203-10.768-3.92c-0.132-1.085-0.229-2.239-0.326-3.419c-0.231-2.81-0.493-5.995-1.33-9.127
			c-0.81-3.028-2.095-5.727-3.339-8.337c-1.452-3.05-2.825-5.931-2.825-8.264C252.12,220.712,253.493,217.832,254.946,214.782z
			 M247.735,269.639c3.05-1.453,5.931-2.826,8.264-2.826c2.333,0,5.215,1.372,8.265,2.826c2.609,1.244,5.308,2.529,8.337,3.338
			c3.132,0.837,6.316,1.1,9.127,1.331c3.314,0.273,6.446,0.531,8.319,1.615c1.93,1.117,3.724,3.72,5.622,6.475
			c1.667,2.419,3.392,4.92,5.655,7.184c2.265,2.265,4.765,3.988,7.184,5.655c2.756,1.899,5.359,3.693,6.475,5.623
			c1.084,1.873,1.341,5.004,1.614,8.319c0.231,2.81,0.493,5.994,1.33,9.126c0.81,3.028,2.096,5.727,3.339,8.337
			c1.453,3.05,2.826,5.931,2.826,8.264c0,2.333-1.372,5.215-2.826,8.264c-1.243,2.61-2.529,5.309-3.339,8.337
			c-0.837,3.132-1.1,6.316-1.33,9.127c-0.273,3.315-0.53,6.447-1.615,8.32c-0.379,0.654-0.938,1.292-1.606,1.925H198.621
			c-0.669-0.633-1.229-1.271-1.608-1.927c-1.084-1.873-1.341-5.004-1.614-8.319c-0.231-2.81-0.493-5.994-1.33-9.126
			c-0.81-3.028-2.095-5.727-3.339-8.337c-1.453-3.049-2.826-5.931-2.826-8.264c0-2.333,1.372-5.214,2.826-8.264
			c1.244-2.61,2.529-5.309,3.339-8.338c0.837-3.132,1.1-6.316,1.33-9.127c0.273-3.315,0.53-6.447,1.615-8.32
			c1.116-1.929,3.719-3.723,6.474-5.621c2.419-1.667,4.92-3.391,7.185-5.656c2.265-2.265,3.988-4.766,5.655-7.185
			c1.899-2.756,3.693-5.359,5.621-6.474c1.874-1.084,5.005-1.342,8.321-1.615c2.81-0.231,5.994-0.493,9.126-1.33
			C242.427,272.168,245.125,270.882,247.735,269.639z M126.515,214.782c1.243-2.61,2.528-5.309,3.338-8.337
			c0.837-3.131,1.1-6.315,1.33-9.125c0.273-3.315,0.531-6.447,1.616-8.321c1.116-1.93,3.72-3.723,6.474-5.621
			c2.419-1.667,4.921-3.391,7.185-5.656c2.264-2.265,3.988-4.766,5.655-7.185c1.898-2.756,3.692-5.359,5.622-6.475
			c1.873-1.084,5.004-1.341,8.318-1.614c2.81-0.232,5.996-0.493,9.127-1.331c3.028-0.809,5.727-2.094,8.337-3.338
			c3.051-1.453,5.931-2.826,8.265-2.826c2.333,0,5.214,1.372,8.263,2.826c2.61,1.244,5.309,2.529,8.338,3.338
			c3.132,0.837,6.316,1.1,9.126,1.331c3.315,0.273,6.447,0.531,8.321,1.615c1.93,1.116,3.723,3.72,5.621,6.474
			c1.667,2.419,3.391,4.921,5.655,7.185c2.266,2.265,4.766,3.989,7.185,5.656c0.807,0.556,1.595,1.103,2.342,1.647
			c-1.345,3.74-1.667,7.579-1.955,11.065c-0.197,2.393-0.384,4.654-0.874,6.487c-0.453,1.698-1.394,3.672-2.39,5.763
			c-2.007,4.213-4.281,8.988-4.281,14.708c0,5.719,2.274,10.494,4.281,14.707c0.996,2.091,1.936,4.065,2.391,5.763
			c0.489,1.833,0.676,4.094,0.873,6.487c0.116,1.406,0.243,2.872,0.435,4.362c-1.326,0.565-2.604,1.166-3.826,1.748
			c-2.091,0.996-4.064,1.936-5.762,2.39c-1.833,0.489-4.094,0.676-6.487,0.873c-4.596,0.379-9.803,0.807-14.595,3.579
			c-4.848,2.806-7.826,7.127-10.453,10.941c-1.345,1.952-2.616,3.794-3.914,5.093c-1.297,1.297-3.141,2.568-5.093,3.912
			c-1.348,0.929-2.76,1.908-4.146,2.991c-1.382-1.084-2.79-2.064-4.136-2.991c-1.952-1.344-3.795-2.615-5.093-3.912
			c-1.298-1.298-2.568-3.141-3.913-5.093c-2.628-3.813-5.606-8.136-10.455-10.942c-4.788-2.771-9.997-3.2-14.592-3.579
			c-2.394-0.197-4.655-0.384-6.488-0.874c-1.697-0.453-3.673-1.394-5.763-2.39c-2.684-1.278-5.599-2.66-8.839-3.499
			c-0.16-1.206-0.271-2.505-0.381-3.84c-0.231-2.81-0.493-5.995-1.33-9.127c-0.81-3.028-2.096-5.727-3.339-8.337
			c-1.452-3.05-2.825-5.931-2.825-8.264C123.689,220.712,125.061,217.832,126.515,214.782z M60.425,326.646
			c1.244-2.61,2.529-5.309,3.339-8.338c0.837-3.132,1.1-6.316,1.33-9.127c0.273-3.315,0.53-6.447,1.615-8.32
			c1.116-1.929,3.719-3.723,6.474-5.621c2.419-1.667,4.92-3.391,7.185-5.656c2.265-2.265,3.988-4.766,5.655-7.185
			c1.899-2.756,3.693-5.359,5.621-6.474c1.874-1.084,5.005-1.342,8.321-1.615c2.81-0.231,5.994-0.493,9.126-1.33
			c3.028-0.81,5.726-2.095,8.337-3.338c3.05-1.453,5.931-2.826,8.264-2.826c2.334,0,5.215,1.372,8.265,2.826
			c2.609,1.244,5.308,2.529,8.336,3.338c3.132,0.837,6.317,1.1,9.128,1.331c3.314,0.273,6.446,0.531,8.319,1.615
			c1.929,1.116,3.723,3.72,5.621,6.474c1.667,2.419,3.391,4.921,5.655,7.185s4.766,3.989,7.185,5.656
			c1.38,0.951,2.713,1.876,3.846,2.805c-1.026,3.369-1.325,6.779-1.583,9.906c-0.197,2.394-0.384,4.655-0.874,6.488
			c-0.453,1.698-1.394,3.672-2.39,5.762c-2.008,4.213-4.282,8.988-4.282,14.708s2.274,10.495,4.282,14.708
			c0.996,2.09,1.936,4.064,2.39,5.762c0.49,1.833,0.677,4.094,0.874,6.487c0.234,2.852,0.49,5.939,1.311,9.016H68.316
			c-0.669-0.634-1.229-1.274-1.608-1.928c-1.084-1.873-1.341-5.004-1.614-8.319c-0.231-2.81-0.493-5.994-1.33-9.126
			c-0.81-3.028-2.095-5.727-3.339-8.337c-1.453-3.049-2.826-5.931-2.826-8.264C57.599,332.576,58.972,329.696,60.425,326.646z
			 M480.63,418.274c-2.471,5.339-7.868,8.789-13.752,8.789h-32.224H77.345H45.12c-5.883,0-11.28-3.45-13.752-8.789l-14.999-32.41
			h479.26L480.63,418.274z"/>
	</g></g><g></g><g></g><g></g><g></g><g></g><g></g><g></g><g></g><g></g><g></g><g></g><g></g><g></g><g></g><g></g></svg>
